# xmcd CD database file
#
# Track frame offsets:
#	150
#	21303
#	49446
#	67456
#	99076
#	129280
#	158184
#	172585
#	198126
#	212759
#	239771
#	270794
#	293564
#	312178
#
# Disc length: 4446 seconds
#
# Revision: 2
# Processed by: cddbd v1.5.2PL0 Copyright (c) Steve Scherf et al.
# Submitted via: CDex 1.51
#
DISCID=bf115c0e
DTITLE=Ken Follett - Die Löwen
DYEAR=2000
DGENRE=Hörbuch
TTITLE0=101 Die Löwen
TTITLE1=102 Die Löwen
TTITLE2=103 Die Löwen
TTITLE3=104 Die Löwen
TTITLE4=105 Die Löwen
TTITLE5=106 Die Löwen
TTITLE6=107 Die Löwen
TTITLE7=108 Die Löwen
TTITLE8=109 Die Löwen
TTITLE9=110 Die Löwen
TTITLE10=111 Die Löwen
TTITLE11=112 Die Löwen
TTITLE12=113 Die Löwen
TTITLE13=114 Die Löwen
EXTD=gelesen von Ulrich Pleitgen
EXTT0=
EXTT1=
EXTT2=
EXTT3=
EXTT4=
EXTT5=
EXTT6=
EXTT7=
EXTT8=
EXTT9=
EXTT10=
EXTT11=
EXTT12=
EXTT13=
PLAYORDER=
